<svg width="100" height="100" viewBox="0 0 24 24" fill="none" xmlns="http://www.w3.org/2000/svg">
  <circle cx="12" cy="12" r="10" fill="black"/>
  
  <path d="M2 12H22" stroke="white" stroke-width="2"/>
  <path d="M12 2V22" stroke="white" stroke-width="2"/>
  <path d="M2.5 8.5C2.5 8.5 6 9.5 12 9.5C18 9.5 21.5 8.5 21.5 8.5" stroke="white" stroke-width="1.5"/>
  <path d="M2.5 15.5C2.5 15.5 6 14.5 12 14.5C18 14.5 21.5 15.5 21.5 15.5" stroke="white" stroke-width="1.5"/>
  <path d="M8.5 2.5C8.5 2.5 9.5 6 9.5 12C9.5 18 8.5 21.5 8.5 21.5" stroke="white" stroke-width="1.5"/>
  <path d="M15.5 2.5C15.5 2.5 14.5 6 14.5 12C14.5 18 15.5 21.5 15.5 21.5" stroke="white" stroke-width="1.5"/>
</svg>