<svg width="699" height="524" viewBox="0 0 699 524" fill="none" xmlns="http://www.w3.org/2000/svg">
<path d="M150.285 230.56C155.877 245.465 195.332 244.533 214.36 242.204C244.65 238.497 264.455 267.822 295.91 267.822H389.11C411.245 266.658 405.42 282.96 403.09 291.111C391.44 321.387 382.12 321.387 364.645 321.387H212.03L165.43 395.911H363.48L333.19 473.929C313.385 525.164 350.665 521.671 361.15 522.836H503.28C546.385 525.164 575.51 517.013 592.985 464.613L648.905 320.222H535.9L486.97 394.747H520.755L507.94 428.516C498.62 448.311 492.795 447.147 470.66 447.147C449.653 447.147 449.69 438.996 454.35 426.187L498.62 310.907C517.26 265.493 520.755 268.987 539.395 268.987H648.905L697.835 193.298H419.4C403.09 194.462 394.935 192.133 406.585 163.022C412.177 145.323 424.06 142.062 438.04 142.062H544.055L592.985 66.3733H312.22C266.785 71.0311 110.675 44.2489 1.16501 0C5.82501 26.7822 52.425 102.471 110.675 123.431C97.86 125.76 67.57 125.76 46.6 119.938C58.25 147.884 123.49 178.16 149.12 185.147C139.8 187.941 108.733 184.758 94.365 182.818C108.345 214.258 149.12 221.244 184.07 217.751C184.07 219.614 161.935 228.231 150.285 230.56Z" fill="url(#paint0_linear_5_16)"/>
<defs>
<linearGradient id="paint0_linear_5_16" x1="349.5" y1="0" x2="349.5" y2="523.187" gradientUnits="userSpaceOnUse">
<stop stop-color="#00FFD1"/>
<stop offset="1" stop-color="#A6CE04"/>
</linearGradient>
</defs>
</svg>
